Coordinates
version=1
nRows=6
nColumns=46
inDegrees=yes

Units are S.I. units (second, meters, Newtons, ...)
Angles are in degrees.

endheader
time	pelvis_tilt	pelvis_list	pelvis_rotation	pelvis_tx	pelvis_ty	pelvis_tz	bb_angle	bb_tx	bb_ty	bb_tz	hip_flexion_r	hip_adduction_r	hip_rotation_r	knee_angle_r	knee_angle_r_beta	ankle_angle_r	subtalar_angle_r	mtp_angle_r	crank_angle_r	hip_flexion_l	hip_adduction_l	hip_rotation_l	knee_angle_l	knee_angle_l_beta	ankle_angle_l	subtalar_angle_l	mtp_angle_l	crank_angle_l	lumbar_extension	lumbar_bending	lumbar_rotation	arm_flex_r	arm_add_r	arm_rot_r	elbow_flex_r	pro_sup_r	wrist_flex_r	wrist_dev_r	arm_flex_l	arm_add_l	arm_rot_l	elbow_flex_l	pro_sup_l	wrist_flex_l	wrist_dev_l
      7.50500000	    -21.65469929	     -2.19033837	     -2.37360374	      0.09038748	      1.01346549	     -0.21836283	      0.00000000	      0.50000000	      0.00000000	      0.25000000	     85.54109277	     -4.75314062	     -0.55320806	     77.58846539	      1.35417418	      0.90397723	     -9.73678478	      0.00000000	      0.00000000	     59.81241047	     -9.98094600	      0.40810502	     77.58224402	      1.35406560	     -7.16438509	    -10.86007089	      0.00000000	      0.00000000	    -48.63342288	     11.68235600	      1.12160274	     87.25856963	     -4.26483013	     37.90810067	     51.68210613	     47.41794237	      0.00000000	      0.00000000	     79.15248567	    -29.56626857	     35.61683353	     55.38212025	     48.08492103	      0.00000000	      0.00000000
      7.51000000	    -21.57525862	     -1.60688478	     -2.32361311	      0.09078614	      1.01266159	     -0.21884886	      0.00000000	      0.50000000	      0.00000000	      0.25000000	     83.73015752	     -4.99749399	     -0.37157625	     74.86740989	      1.30668281	      0.97916525	     -9.64415983	      0.00000000	      0.00000000	     60.88179553	     -9.33437994	      0.44600614	     80.15383052	      1.39894825	     -6.69177065	    -11.37878844	      0.00000000	      0.00000000	    -48.43429568	     11.17900125	      0.63786785	     86.93514983	     -4.30582307	     37.71641167	     51.64590547	     47.38529207	      0.00000000	      0.00000000	     79.21583398	    -29.49894174	     35.65735092	     55.27873537	     48.07142132	      0.00000000	      0.00000000
      7.51500000	    -21.45169854	     -1.38069278	     -2.34277734	      0.09086811	      1.01127994	     -0.21915598	      0.00000000	      0.50000000	      0.00000000	      0.25000000	     81.90602008	     -5.06817400	     -0.49842233	     72.23925606	      1.26081287	      0.81265755	     -9.66283187	      0.00000000	      0.00000000	     62.18472214	     -9.00769906	      0.80129644	     82.97478308	      1.44818316	     -6.43190798	    -11.92832552	      0.00000000	      0.00000000	    -48.23380357	     10.93638882	      0.67619076	     86.68362926	     -3.76064040	     36.22754842	     50.81159257	     47.08013791	      0.00000000	      0.00000000	     79.88154620	    -29.10868560	     37.01883329	     53.65401154	     48.05382245	      0.00000000	      0.00000000
      7.52000000	    -21.28268699	     -0.92173256	     -2.29654687	      0.09094368	      1.00969169	     -0.21943640	      0.00000000	      0.50000000	      0.00000000	      0.25000000	     80.25016824	     -5.37733227	     -0.45699607	     69.92852499	      1.22048300	      0.60894556	     -9.14314988	      0.00000000	      0.00000000	     63.43794050	     -8.45600576	      0.99139824	     85.72937969	      1.49625994	     -6.17359057	    -12.37609551	      0.00000000	      0.00000000	    -48.09204806	     10.49482599	      0.32532022	     86.47663543	     -3.81624776	     36.08186487	     50.84687778	     47.06824600	      0.00000000	      0.00000000	     79.97337802	    -29.05348475	     37.07057193	     53.66878577	     48.06686651	      0.00000000	      0.00000000
      7.52500000	    -21.22067759	     -0.55150117	     -2.31881692	      0.09113974	      1.00786255	     -0.21953451	      0.00000000	      0.50000000	      0.00000000	      0.25000000	     78.69249625	     -5.51629280	     -0.39260068	     67.65938347	      1.18087901	      0.31992085	     -8.68974264	      0.00000000	      0.00000000	     64.89611678	     -8.05053400	      1.19603850	     88.48076088	      1.54428060	     -6.13894610	    -12.69821746	      0.00000000	      0.00000000	    -47.82792315	     10.07141408	      0.11133418	     86.24170341	     -3.87260584	     35.88332669	     50.81785921	     47.04170422	      0.00000000	      0.00000000	     79.97951027	    -28.96428869	     37.24100814	     53.66678303	     48.09183698	      0.00000000	      0.00000000
      7.53000000	    -21.08203621	     -0.17839638	     -2.40386136	      0.09134410	      1.00595012	     -0.21960278	      0.00000000	      0.50000000	      0.00000000	      0.25000000	     77.10298457	     -5.61231863	     -0.33148610	     65.48311868	      1.14289603	     -0.07006320	     -8.38681063	      0.00000000	      0.00000000	     66.35995836	     -7.70026174	      1.37670347	     91.24835358	      1.59258421	     -6.17557666	    -13.06477729	      0.00000000	      0.00000000	    -47.62581176	      9.59298871	     -0.02749055	     86.02618382	     -3.94096566	     35.63678926	     50.69805650	     46.99914283	      0.00000000	      0.00000000	     79.99967741	    -28.80979904	     37.57653492	     53.63843787	     48.13493400	      0.00000000	      0.00000000
